<svg xmlns="http://www.w3.org/2000/svg" xmlns:xlink="http://www.w3.org/1999/xlink" width="940" zoomAndPan="magnify" viewBox="0 0 705 299.999988" height="400" preserveAspectRatio="xMidYMid meet" version="1.2"><defs><clipPath id="2962e1c595"><path d="M 166.230469 112.539062 L 191 112.539062 L 191 136.292969 L 166.230469 136.292969 Z M 166.230469 112.539062 "/></clipPath><clipPath id="58a90d718d"><path d="M 178.582031 112.539062 C 171.761719 112.539062 166.230469 117.859375 166.230469 124.417969 C 166.230469 130.976562 171.761719 136.292969 178.582031 136.292969 C 185.402344 136.292969 190.933594 130.976562 190.933594 124.417969 C 190.933594 117.859375 185.402344 112.539062 178.582031 112.539062 Z M 178.582031 112.539062 "/></clipPath><clipPath id="89742152b5"><path d="M 337.527344 112.539062 L 362.300781 112.539062 L 362.300781 136.292969 L 337.527344 136.292969 Z M 337.527344 112.539062 "/></clipPath><clipPath id="29515d4e53"><path d="M 349.878906 112.539062 C 343.058594 112.539062 337.527344 117.859375 337.527344 124.417969 C 337.527344 130.976562 343.058594 136.292969 349.878906 136.292969 C 356.699219 136.292969 362.230469 130.976562 362.230469 124.417969 C 362.230469 117.859375 356.699219 112.539062 349.878906 112.539062 Z M 349.878906 112.539062 "/></clipPath></defs><g id="f7dc271e7b"><rect x="0" width="705" y="0" height="299.999988" style="fill:#ffffff;fill-opacity:1;stroke:none;"/><rect x="0" width="705" y="0" height="299.999988" style="fill:#ffffff;fill-opacity:1;stroke:none;"/><g style="fill:#8217a8;fill-opacity:1;"><g transform="translate(35.442498, 177.782311)"><path style="stroke:none" d="M 85.921875 -2.015625 C 86.367188 -1.484375 86.457031 -1.015625 86.1875 -0.609375 C 85.914062 -0.203125 85.421875 0 84.703125 0 L 61.546875 0 C 61.003906 0 60.597656 -0.132812 60.328125 -0.40625 L 28.953125 -39.1875 C 28.503906 -38.738281 27.492188 -37.640625 25.921875 -35.890625 C 24.347656 -34.140625 22.460938 -32.03125 20.265625 -29.5625 C 18.066406 -27.09375 15.800781 -24.53125 13.46875 -21.875 C 11.132812 -19.226562 8.929688 -16.738281 6.859375 -14.40625 C 4.796875 -12.070312 3.132812 -10.1875 1.875 -8.75 C 0.625 -7.3125 0 -6.59375 0 -6.59375 L 0 -106.53125 C 0 -107.332031 0.492188 -107.734375 1.484375 -107.734375 L 19.265625 -107.734375 C 20.160156 -107.734375 20.609375 -107.332031 20.609375 -106.53125 L 20.609375 -57.5 L 61.140625 -107.328125 C 61.410156 -107.597656 61.816406 -107.734375 62.359375 -107.734375 L 84.296875 -107.734375 C 85.015625 -107.734375 85.507812 -107.507812 85.78125 -107.0625 C 86.050781 -106.613281 85.960938 -106.164062 85.515625 -105.71875 L 42.6875 -52.921875 Z M 85.921875 -2.015625 "/></g></g><g style="fill:#8217a8;fill-opacity:1;"><g transform="translate(126.068757, 177.782311)"><path style="stroke:none" d="M 61.953125 -53.59375 C 61.953125 -50.8125 60.984375 -48.429688 59.046875 -46.453125 C 57.117188 -44.484375 54.71875 -43.5 51.84375 -43.5 C 49.0625 -43.5 46.679688 -44.484375 44.703125 -46.453125 C 42.734375 -48.429688 41.75 -50.8125 41.75 -53.59375 C 41.75 -56.46875 42.734375 -58.890625 44.703125 -60.859375 C 46.679688 -62.835938 49.0625 -63.828125 51.84375 -63.828125 C 54.71875 -63.828125 57.117188 -62.835938 59.046875 -60.859375 C 60.984375 -58.890625 61.953125 -56.46875 61.953125 -53.59375 Z M 103.703125 -54 C 103.703125 -47.269531 102.625 -40.691406 100.46875 -34.265625 C 98.3125 -27.847656 95.078125 -22.054688 90.765625 -16.890625 C 86.453125 -11.734375 81.0625 -7.628906 74.59375 -4.578125 C 68.132812 -1.523438 60.597656 0 51.984375 0 C 43.273438 0 35.664062 -1.523438 29.15625 -4.578125 C 22.644531 -7.628906 17.234375 -11.734375 12.921875 -16.890625 C 8.617188 -22.054688 5.390625 -27.847656 3.234375 -34.265625 C 1.078125 -40.691406 0 -47.269531 0 -54 C 0 -60.738281 1.078125 -67.296875 3.234375 -73.671875 C 5.390625 -80.046875 8.617188 -85.789062 12.921875 -90.90625 C 17.234375 -96.019531 22.644531 -100.101562 29.15625 -103.15625 C 35.664062 -106.207031 43.273438 -107.734375 51.984375 -107.734375 C 60.597656 -107.734375 68.132812 -106.207031 74.59375 -103.15625 C 81.0625 -100.101562 86.453125 -96.019531 90.765625 -90.90625 C 95.078125 -85.789062 98.3125 -80.046875 100.46875 -73.671875 C 102.625 -67.296875 103.703125 -60.738281 103.703125 -54 Z M 83.5 -53.59375 C 83.5 -58 82.820312 -62.285156 81.46875 -66.453125 C 80.125 -70.628906 78.148438 -74.398438 75.546875 -77.765625 C 72.941406 -81.140625 69.664062 -83.8125 65.71875 -85.78125 C 61.769531 -87.757812 57.191406 -88.75 51.984375 -88.75 C 46.679688 -88.75 42.054688 -87.757812 38.109375 -85.78125 C 34.160156 -83.8125 30.859375 -81.140625 28.203125 -77.765625 C 25.554688 -74.398438 23.582031 -70.628906 22.28125 -66.453125 C 20.976562 -62.285156 20.328125 -58 20.328125 -53.59375 C 20.328125 -49.289062 20.976562 -45.070312 22.28125 -40.9375 C 23.582031 -36.8125 25.554688 -33.085938 28.203125 -29.765625 C 30.859375 -26.441406 34.160156 -23.789062 38.109375 -21.8125 C 42.054688 -19.84375 46.679688 -18.859375 51.984375 -18.859375 C 57.191406 -18.859375 61.769531 -19.84375 65.71875 -21.8125 C 69.664062 -23.789062 72.941406 -26.441406 75.546875 -29.765625 C 78.148438 -33.085938 80.125 -36.8125 81.46875 -40.9375 C 82.820312 -45.070312 83.5 -49.289062 83.5 -53.59375 Z M 83.5 -53.59375 "/></g></g><g style="fill:#8217a8;fill-opacity:1;"><g transform="translate(234.874138, 177.782311)"><path style="stroke:none" d="M 58.171875 -20.0625 C 59.160156 -20.0625 59.65625 -19.613281 59.65625 -18.71875 L 59.65625 -1.21875 C 59.65625 -0.40625 59.160156 0 58.171875 0 L 1.484375 0 C 0.492188 0 0 -0.40625 0 -1.21875 L 0 -20.0625 Z M 20.609375 -40.671875 L 0 -40.671875 L 0 -106.53125 C 0 -107.332031 0.492188 -107.734375 1.484375 -107.734375 L 19.265625 -107.734375 C 20.160156 -107.734375 20.609375 -107.332031 20.609375 -106.53125 Z M 20.609375 -40.671875 "/></g></g><g style="fill:#8217a8;fill-opacity:1;"><g transform="translate(297.62575, 177.782311)"><path style="stroke:none" d="M 61.953125 -53.59375 C 61.953125 -50.8125 60.984375 -48.429688 59.046875 -46.453125 C 57.117188 -44.484375 54.71875 -43.5 51.84375 -43.5 C 49.0625 -43.5 46.679688 -44.484375 44.703125 -46.453125 C 42.734375 -48.429688 41.75 -50.8125 41.75 -53.59375 C 41.75 -56.46875 42.734375 -58.890625 44.703125 -60.859375 C 46.679688 -62.835938 49.0625 -63.828125 51.84375 -63.828125 C 54.71875 -63.828125 57.117188 -62.835938 59.046875 -60.859375 C 60.984375 -58.890625 61.953125 -56.46875 61.953125 -53.59375 Z M 103.703125 -54 C 103.703125 -47.269531 102.625 -40.691406 100.46875 -34.265625 C 98.3125 -27.847656 95.078125 -22.054688 90.765625 -16.890625 C 86.453125 -11.734375 81.0625 -7.628906 74.59375 -4.578125 C 68.132812 -1.523438 60.597656 0 51.984375 0 C 43.273438 0 35.664062 -1.523438 29.15625 -4.578125 C 22.644531 -7.628906 17.234375 -11.734375 12.921875 -16.890625 C 8.617188 -22.054688 5.390625 -27.847656 3.234375 -34.265625 C 1.078125 -40.691406 0 -47.269531 0 -54 C 0 -60.738281 1.078125 -67.296875 3.234375 -73.671875 C 5.390625 -80.046875 8.617188 -85.789062 12.921875 -90.90625 C 17.234375 -96.019531 22.644531 -100.101562 29.15625 -103.15625 C 35.664062 -106.207031 43.273438 -107.734375 51.984375 -107.734375 C 60.597656 -107.734375 68.132812 -106.207031 74.59375 -103.15625 C 81.0625 -100.101562 86.453125 -96.019531 90.765625 -90.90625 C 95.078125 -85.789062 98.3125 -80.046875 100.46875 -73.671875 C 102.625 -67.296875 103.703125 -60.738281 103.703125 -54 Z M 83.5 -53.59375 C 83.5 -58 82.820312 -62.285156 81.46875 -66.453125 C 80.125 -70.628906 78.148438 -74.398438 75.546875 -77.765625 C 72.941406 -81.140625 69.664062 -83.8125 65.71875 -85.78125 C 61.769531 -87.757812 57.191406 -88.75 51.984375 -88.75 C 46.679688 -88.75 42.054688 -87.757812 38.109375 -85.78125 C 34.160156 -83.8125 30.859375 -81.140625 28.203125 -77.765625 C 25.554688 -74.398438 23.582031 -70.628906 22.28125 -66.453125 C 20.976562 -62.285156 20.328125 -58 20.328125 -53.59375 C 20.328125 -49.289062 20.976562 -45.070312 22.28125 -40.9375 C 23.582031 -36.8125 25.554688 -33.085938 28.203125 -29.765625 C 30.859375 -26.441406 34.160156 -23.789062 38.109375 -21.8125 C 42.054688 -19.84375 46.679688 -18.859375 51.984375 -18.859375 C 57.191406 -18.859375 61.769531 -19.84375 65.71875 -21.8125 C 69.664062 -23.789062 72.941406 -26.441406 75.546875 -29.765625 C 78.148438 -33.085938 80.125 -36.8125 81.46875 -40.9375 C 82.820312 -45.070312 83.5 -49.289062 83.5 -53.59375 Z M 83.5 -53.59375 "/></g></g><g style="fill:#8217a8;fill-opacity:1;"><g transform="translate(406.431108, 177.782311)"><path style="stroke:none" d="M 19.65625 -54.671875 C 19.65625 -48.742188 20.957031 -43.15625 23.5625 -37.90625 C 26.164062 -32.65625 29.867188 -28.390625 34.671875 -25.109375 C 39.484375 -21.835938 45.117188 -20.203125 51.578125 -20.203125 C 53.910156 -20.203125 56.421875 -20.535156 59.109375 -21.203125 C 61.804688 -21.878906 64.320312 -22.800781 66.65625 -23.96875 L 22.21875 -68.40625 C 21.414062 -66.257812 20.785156 -64.015625 20.328125 -61.671875 C 19.878906 -59.335938 19.65625 -57.003906 19.65625 -54.671875 Z M 83.765625 -54.671875 C 83.765625 -60.691406 82.53125 -66.28125 80.0625 -71.4375 C 77.59375 -76.601562 73.976562 -80.78125 69.21875 -83.96875 C 64.457031 -87.15625 58.578125 -88.75 51.578125 -88.75 C 48.253906 -88.75 45.175781 -88.34375 42.34375 -87.53125 C 39.519531 -86.726562 36.941406 -85.5625 34.609375 -84.03125 L 80.265625 -38.375 C 81.335938 -40.71875 82.1875 -43.367188 82.8125 -46.328125 C 83.445312 -49.285156 83.765625 -52.066406 83.765625 -54.671875 Z M 104.234375 -13.734375 C 105.046875 -13.191406 105.046875 -12.609375 104.234375 -11.984375 L 92.65625 -0.265625 C 91.9375 0.179688 91.21875 0.179688 90.5 -0.265625 L 80.796875 -10.09375 C 76.578125 -7.3125 71.976562 -5.132812 67 -3.5625 C 62.019531 -2 56.878906 -1.21875 51.578125 -1.21875 C 43.859375 -1.21875 36.832031 -2.648438 30.5 -5.515625 C 24.175781 -8.390625 18.742188 -12.316406 14.203125 -17.296875 C 9.671875 -22.285156 6.171875 -27.988281 3.703125 -34.40625 C 1.234375 -40.820312 0 -47.578125 0 -54.671875 C 0 -61.679688 1.1875 -68.367188 3.5625 -74.734375 C 5.945312 -81.109375 9.382812 -86.765625 13.875 -91.703125 C 18.363281 -96.648438 23.769531 -100.554688 30.09375 -103.421875 C 36.425781 -106.296875 43.585938 -107.734375 51.578125 -107.734375 C 59.296875 -107.734375 66.296875 -106.296875 72.578125 -103.421875 C 78.867188 -100.554688 84.328125 -96.648438 88.953125 -91.703125 C 93.578125 -86.765625 97.125 -81.109375 99.59375 -74.734375 C 102.0625 -68.367188 103.296875 -61.679688 103.296875 -54.671875 C 103.296875 -49.460938 102.507812 -44.050781 100.9375 -38.4375 C 99.363281 -32.832031 97.1875 -27.921875 94.40625 -23.703125 Z M 104.234375 -13.734375 "/></g></g><g style="fill:#8217a8;fill-opacity:1;"><g transform="translate(516.450275, 177.782311)"><path style="stroke:none" d=""/></g></g><g style="fill:#f97019;fill-opacity:1;"><g transform="translate(516.450275, 177.782311)"><path style="stroke:none" d="M 19.390625 -9.421875 C 19.390625 -6.816406 18.445312 -4.59375 16.5625 -2.75 C 14.675781 -0.914062 12.34375 0 9.5625 0 C 6.957031 0 4.710938 -0.914062 2.828125 -2.75 C 0.941406 -4.59375 0 -6.816406 0 -9.421875 C 0 -12.023438 0.941406 -14.269531 2.828125 -16.15625 C 4.710938 -18.039062 6.957031 -18.984375 9.5625 -18.984375 C 12.34375 -18.984375 14.675781 -18.039062 16.5625 -16.15625 C 18.445312 -14.269531 19.390625 -12.023438 19.390625 -9.421875 Z M 19.390625 -9.421875 "/></g></g><g style="fill:#f97019;fill-opacity:1;"><g transform="translate(536.794024, 177.782311)"><path style="stroke:none" d=""/></g></g><g style="fill:#1cd1dd;fill-opacity:1;"><g transform="translate(536.794024, 177.782311)"><path style="stroke:none" d="M 84.578125 -1.609375 C 84.753906 -1.253906 84.707031 -0.894531 84.4375 -0.53125 C 84.164062 -0.175781 83.804688 0 83.359375 0 L 64.78125 0 C 64.144531 0 63.738281 -0.269531 63.5625 -0.8125 L 42.28125 -60.875 L 21.28125 -0.8125 C 21.1875 -0.269531 20.738281 0 19.9375 0 L 1.484375 0 C 0.847656 0 0.414062 -0.175781 0.1875 -0.53125 C -0.03125 -0.894531 -0.046875 -1.253906 0.140625 -1.609375 L 40.9375 -106.921875 C 41.113281 -107.460938 41.5625 -107.734375 42.28125 -107.734375 C 43 -107.734375 43.453125 -107.460938 43.640625 -106.921875 Z M 84.578125 -1.609375 "/></g></g><g style="fill:#1cd1dd;fill-opacity:1;"><g transform="translate(625.669703, 177.782311)"><path style="stroke:none" d="M 43.90625 -18.453125 C 44.894531 -18.453125 45.390625 -18.046875 45.390625 -17.234375 L 45.390625 -1.21875 C 45.390625 -0.40625 44.894531 0 43.90625 0 L 1.484375 0 C 0.492188 0 0 -0.40625 0 -1.21875 L 0 -17.234375 C 0 -18.046875 0.492188 -18.453125 1.484375 -18.453125 L 12.53125 -18.453125 L 12.53125 -107.734375 L 33.125 -107.734375 L 33.125 -18.453125 Z M 43.90625 -18.453125 "/></g></g><g style="fill:#1cd1dd;fill-opacity:1;"><g transform="translate(673.340887, 177.782311)"><path style="stroke:none" d=""/></g></g><g style="fill:#545454;fill-opacity:1;"><g transform="translate(62.524527, 254.137522)"><path style="stroke:none" d="M 15.75 -31.0625 C 18.582031 -31.0625 20.847656 -30.351562 22.546875 -28.9375 C 24.242188 -27.519531 25.09375 -25.625 25.09375 -23.25 C 25.09375 -21.644531 24.628906 -20.25 23.703125 -19.0625 C 22.785156 -17.875 21.453125 -17.003906 19.703125 -16.453125 L 19.703125 -16.359375 C 21.597656 -16.128906 23.1875 -15.332031 24.46875 -13.96875 C 25.757812 -12.613281 26.40625 -10.910156 26.40625 -8.859375 C 26.40625 -6.054688 25.378906 -3.878906 23.328125 -2.328125 C 21.285156 -0.773438 18.46875 0 14.875 0 L 3.46875 0 L 3.46875 -31.0625 Z M 14.21875 -18.421875 C 15.882812 -18.421875 17.191406 -18.769531 18.140625 -19.46875 C 19.085938 -20.175781 19.5625 -21.128906 19.5625 -22.328125 C 19.5625 -24.992188 17.632812 -26.328125 13.78125 -26.328125 L 9 -26.328125 L 9 -18.421875 Z M 14.265625 -4.734375 C 18.679688 -4.734375 20.890625 -6.253906 20.890625 -9.296875 C 20.890625 -10.878906 20.359375 -12.003906 19.296875 -12.671875 C 18.242188 -13.347656 16.664062 -13.6875 14.5625 -13.6875 L 9 -13.6875 L 9 -4.734375 Z M 14.265625 -4.734375 "/></g></g><g style="fill:#545454;fill-opacity:1;"><g transform="translate(90.955551, 254.137522)"><path style="stroke:none" d="M 8.25 -21.0625 L 8.25 -10.171875 C 8.25 -8.066406 8.566406 -6.546875 9.203125 -5.609375 C 9.847656 -4.679688 10.816406 -4.21875 12.109375 -4.21875 C 13.691406 -4.21875 14.890625 -4.695312 15.703125 -5.65625 C 16.523438 -6.625 16.9375 -7.925781 16.9375 -9.5625 L 16.9375 -21.0625 L 22.203125 -21.0625 L 22.203125 0 L 17.203125 0 L 17.203125 -3.375 L 17.109375 -3.375 C 15.878906 -0.769531 13.726562 0.53125 10.65625 0.53125 C 8.289062 0.53125 6.421875 -0.175781 5.046875 -1.59375 C 3.671875 -3.019531 2.984375 -5.019531 2.984375 -7.59375 L 2.984375 -21.0625 Z M 8.25 -21.0625 "/></g></g><g style="fill:#545454;fill-opacity:1;"><g transform="translate(116.139818, 254.137522)"><path style="stroke:none" d="M 5.65625 -31.375 C 6.625 -31.375 7.4375 -31.070312 8.09375 -30.46875 C 8.75 -29.875 9.078125 -29.125 9.078125 -28.21875 C 9.078125 -27.28125 8.738281 -26.515625 8.0625 -25.921875 C 7.394531 -25.335938 6.59375 -25.046875 5.65625 -25.046875 C 4.71875 -25.046875 3.925781 -25.359375 3.28125 -25.984375 C 2.644531 -26.617188 2.328125 -27.363281 2.328125 -28.21875 C 2.328125 -29.0625 2.644531 -29.796875 3.28125 -30.421875 C 3.925781 -31.054688 4.71875 -31.375 5.65625 -31.375 Z M 8.34375 -21.0625 L 8.34375 0 L 3.078125 0 L 3.078125 -21.0625 Z M 8.34375 -21.0625 "/></g></g><g style="fill:#545454;fill-opacity:1;"><g transform="translate(127.547322, 254.137522)"><path style="stroke:none" d="M 8.34375 -33.171875 L 8.34375 0 L 3.078125 0 L 3.078125 -33.171875 Z M 8.34375 -33.171875 "/></g></g><g style="fill:#545454;fill-opacity:1;"><g transform="translate(138.954826, 254.137522)"><path style="stroke:none" d="M 24.65625 -33.171875 L 24.65625 0 L 19.65625 0 L 19.65625 -3.15625 L 19.5625 -3.15625 C 18.101562 -0.695312 15.675781 0.53125 12.28125 0.53125 C 9.15625 0.53125 6.648438 -0.503906 4.765625 -2.578125 C 2.878906 -4.660156 1.9375 -7.3125 1.9375 -10.53125 C 1.9375 -13.632812 2.882812 -16.253906 4.78125 -18.390625 C 6.6875 -20.523438 9.128906 -21.59375 12.109375 -21.59375 C 15.117188 -21.59375 17.503906 -20.523438 19.265625 -18.390625 L 19.390625 -18.390625 L 19.390625 -33.171875 Z M 7.203125 -10.53125 C 7.203125 -8.65625 7.789062 -7.132812 8.96875 -5.96875 C 10.15625 -4.800781 11.625 -4.21875 13.375 -4.21875 C 15.21875 -4.21875 16.707031 -4.820312 17.84375 -6.03125 C 18.988281 -7.25 19.5625 -8.75 19.5625 -10.53125 C 19.5625 -12.34375 18.96875 -13.847656 17.78125 -15.046875 C 16.601562 -16.242188 15.132812 -16.84375 13.375 -16.84375 C 11.65625 -16.84375 10.195312 -16.25 9 -15.0625 C 7.800781 -13.882812 7.203125 -12.375 7.203125 -10.53125 Z M 7.203125 -10.53125 "/></g></g><g style="fill:#545454;fill-opacity:1;"><g transform="translate(166.63997, 254.137522)"><path style="stroke:none" d="M 5.65625 -31.375 C 6.625 -31.375 7.4375 -31.070312 8.09375 -30.46875 C 8.75 -29.875 9.078125 -29.125 9.078125 -28.21875 C 9.078125 -27.28125 8.738281 -26.515625 8.0625 -25.921875 C 7.394531 -25.335938 6.59375 -25.046875 5.65625 -25.046875 C 4.71875 -25.046875 3.925781 -25.359375 3.28125 -25.984375 C 2.644531 -26.617188 2.328125 -27.363281 2.328125 -28.21875 C 2.328125 -29.0625 2.644531 -29.796875 3.28125 -30.421875 C 3.925781 -31.054688 4.71875 -31.375 5.65625 -31.375 Z M 8.34375 -21.0625 L 8.34375 0 L 3.078125 0 L 3.078125 -21.0625 Z M 8.34375 -21.0625 "/></g></g><g style="fill:#545454;fill-opacity:1;"><g transform="translate(178.047474, 254.137522)"><path style="stroke:none" d="M 14.515625 -21.59375 C 16.921875 -21.59375 18.800781 -20.875 20.15625 -19.4375 C 21.519531 -18 22.203125 -16.007812 22.203125 -13.46875 L 22.203125 0 L 16.9375 0 L 16.9375 -10.921875 C 16.9375 -14.867188 15.648438 -16.84375 13.078125 -16.84375 C 11.585938 -16.84375 10.410156 -16.359375 9.546875 -15.390625 C 8.679688 -14.429688 8.25 -13.160156 8.25 -11.578125 L 8.25 0 L 2.984375 0 L 2.984375 -21.0625 L 7.984375 -21.0625 L 7.984375 -17.6875 L 8.078125 -17.6875 C 9.273438 -20.289062 11.421875 -21.59375 14.515625 -21.59375 Z M 14.515625 -21.59375 "/></g></g><g style="fill:#545454;fill-opacity:1;"><g transform="translate(203.231741, 254.137522)"><path style="stroke:none" d="M 12.28125 -21.59375 C 15.675781 -21.59375 18.101562 -20.363281 19.5625 -17.90625 L 19.65625 -17.90625 L 19.65625 -21.0625 L 24.65625 -21.0625 L 24.65625 -1.71875 C 24.65625 2.09375 23.664062 5.085938 21.6875 7.265625 C 19.71875 9.441406 16.742188 10.53125 12.765625 10.53125 C 8.441406 10.53125 4.960938 9.375 2.328125 7.0625 L 5.484375 2.765625 C 7.679688 4.785156 10.09375 5.796875 12.71875 5.796875 C 15.175781 5.796875 16.898438 5.171875 17.890625 3.921875 C 18.890625 2.679688 19.390625 0.890625 19.390625 -1.453125 L 19.390625 -2.8125 L 19.3125 -2.8125 C 17.664062 -0.757812 15.367188 0.265625 12.421875 0.265625 C 9.378906 0.265625 6.867188 -0.75 4.890625 -2.78125 C 2.921875 -4.8125 1.9375 -7.394531 1.9375 -10.53125 C 1.9375 -13.75 2.878906 -16.394531 4.765625 -18.46875 C 6.648438 -20.550781 9.15625 -21.59375 12.28125 -21.59375 Z M 7.203125 -10.578125 C 7.203125 -8.816406 7.804688 -7.359375 9.015625 -6.203125 C 10.234375 -5.046875 11.6875 -4.46875 13.375 -4.46875 C 15.28125 -4.46875 16.800781 -5.050781 17.9375 -6.21875 C 19.082031 -7.394531 19.65625 -8.875 19.65625 -10.65625 C 19.65625 -12.59375 19.078125 -14.109375 17.921875 -15.203125 C 16.765625 -16.296875 15.25 -16.84375 13.375 -16.84375 C 11.5625 -16.84375 10.078125 -16.269531 8.921875 -15.125 C 7.773438 -13.988281 7.203125 -12.472656 7.203125 -10.578125 Z M 7.203125 -10.578125 "/></g></g><g style="fill:#545454;fill-opacity:1;"><g transform="translate(230.873008, 254.137522)"><path style="stroke:none" d=""/></g></g><g style="fill:#545454;fill-opacity:1;"><g transform="translate(243.860014, 254.137522)"><path style="stroke:none" d="M 8.859375 -31.0625 L 8.859375 0 L 3.328125 0 L 3.328125 -31.0625 Z M 8.859375 -31.0625 "/></g></g><g style="fill:#545454;fill-opacity:1;"><g transform="translate(256.057287, 254.137522)"><path style="stroke:none" d="M 14.515625 -21.59375 C 16.921875 -21.59375 18.800781 -20.875 20.15625 -19.4375 C 21.519531 -18 22.203125 -16.007812 22.203125 -13.46875 L 22.203125 0 L 16.9375 0 L 16.9375 -10.921875 C 16.9375 -14.867188 15.648438 -16.84375 13.078125 -16.84375 C 11.585938 -16.84375 10.410156 -16.359375 9.546875 -15.390625 C 8.679688 -14.429688 8.25 -13.160156 8.25 -11.578125 L 8.25 0 L 2.984375 0 L 2.984375 -21.0625 L 7.984375 -21.0625 L 7.984375 -17.6875 L 8.078125 -17.6875 C 9.273438 -20.289062 11.421875 -21.59375 14.515625 -21.59375 Z M 14.515625 -21.59375 "/></g></g><g style="fill:#545454;fill-opacity:1;"><g transform="translate(281.241542, 254.137522)"><path style="stroke:none" d="M 10.140625 -27.15625 L 10.140625 -21.0625 L 15.921875 -21.0625 L 15.921875 -16.578125 L 10.140625 -16.578125 L 10.140625 -7.234375 C 10.140625 -5.046875 11.117188 -3.953125 13.078125 -3.953125 C 14.390625 -3.953125 15.335938 -4.171875 15.921875 -4.609375 L 15.921875 -0.171875 C 14.929688 0.296875 13.546875 0.53125 11.765625 0.53125 C 9.328125 0.53125 7.566406 0 6.484375 -1.0625 C 5.410156 -2.132812 4.875 -4.019531 4.875 -6.71875 L 4.875 -16.578125 L 0.53125 -16.578125 L 0.53125 -21.0625 L 4.875 -21.0625 L 4.875 -27.15625 Z M 10.140625 -27.15625 "/></g><g transform="translate(298.308916, 254.137522)"><path style="stroke:none" d="M 13.375 -21.59375 C 16.539062 -21.59375 18.976562 -20.535156 20.6875 -18.421875 C 22.394531 -16.316406 23.25 -13.566406 23.25 -10.171875 L 23.25 -8.6875 L 7.203125 -8.6875 C 7.367188 -7.164062 7.972656 -5.953125 9.015625 -5.046875 C 10.054688 -4.140625 11.335938 -3.6875 12.859375 -3.6875 C 15.078125 -3.6875 16.960938 -4.632812 18.515625 -6.53125 L 22.28125 -3.6875 C 20 -0.875 17.03125 0.53125 13.375 0.53125 C 10.164062 0.53125 7.457031 -0.488281 5.25 -2.53125 C 3.039062 -4.582031 1.9375 -7.25 1.9375 -10.53125 C 1.9375 -13.800781 3.039062 -16.460938 5.25 -18.515625 C 7.457031 -20.566406 10.164062 -21.59375 13.375 -21.59375 Z M 17.984375 -12.640625 C 17.953125 -14.304688 17.441406 -15.554688 16.453125 -16.390625 C 15.460938 -17.222656 14.175781 -17.640625 12.59375 -17.640625 C 11.007812 -17.640625 9.765625 -17.175781 8.859375 -16.25 C 7.953125 -15.332031 7.398438 -14.128906 7.203125 -12.640625 Z M 17.984375 -12.640625 "/></g></g><g style="fill:#545454;fill-opacity:1;"><g transform="translate(323.493194, 254.137522)"><path style="stroke:none" d="M 8.34375 -33.171875 L 8.34375 0 L 3.078125 0 L 3.078125 -33.171875 Z M 8.34375 -33.171875 "/></g></g><g style="fill:#545454;fill-opacity:1;"><g transform="translate(334.944564, 254.137522)"><path style="stroke:none" d="M 8.34375 -33.171875 L 8.34375 0 L 3.078125 0 L 3.078125 -33.171875 Z M 8.34375 -33.171875 "/></g></g><g style="fill:#545454;fill-opacity:1;"><g transform="translate(346.395956, 254.137522)"><path style="stroke:none" d="M 5.65625 -31.375 C 6.625 -31.375 7.4375 -31.070312 8.09375 -30.46875 C 8.75 -29.875 9.078125 -29.125 9.078125 -28.21875 C 9.078125 -27.28125 8.738281 -26.515625 8.0625 -25.921875 C 7.394531 -25.335938 6.59375 -25.046875 5.65625 -25.046875 C 4.71875 -25.046875 3.925781 -25.359375 3.28125 -25.984375 C 2.644531 -26.617188 2.328125 -27.363281 2.328125 -28.21875 C 2.328125 -29.0625 2.644531 -29.796875 3.28125 -30.421875 C 3.925781 -31.054688 4.71875 -31.375 5.65625 -31.375 Z M 8.34375 -21.0625 L 8.34375 0 L 3.078125 0 L 3.078125 -21.0625 Z M 8.34375 -21.0625 "/></g></g><g style="fill:#545454;fill-opacity:1;"><g transform="translate(357.803449, 254.137522)"><path style="stroke:none" d="M 12.28125 -21.59375 C 15.675781 -21.59375 18.101562 -20.363281 19.5625 -17.90625 L 19.65625 -17.90625 L 19.65625 -21.0625 L 24.65625 -21.0625 L 24.65625 -1.71875 C 24.65625 2.09375 23.664062 5.085938 21.6875 7.265625 C 19.71875 9.441406 16.742188 10.53125 12.765625 10.53125 C 8.441406 10.53125 4.960938 9.375 2.328125 7.0625 L 5.484375 2.765625 C 7.679688 4.785156 10.09375 5.796875 12.71875 5.796875 C 15.175781 5.796875 16.898438 5.171875 17.890625 3.921875 C 18.890625 2.679688 19.390625 0.890625 19.390625 -1.453125 L 19.390625 -2.8125 L 19.3125 -2.8125 C 17.664062 -0.757812 15.367188 0.265625 12.421875 0.265625 C 9.378906 0.265625 6.867188 -0.75 4.890625 -2.78125 C 2.921875 -4.8125 1.9375 -7.394531 1.9375 -10.53125 C 1.9375 -13.75 2.878906 -16.394531 4.765625 -18.46875 C 6.648438 -20.550781 9.15625 -21.59375 12.28125 -21.59375 Z M 7.203125 -10.578125 C 7.203125 -8.816406 7.804688 -7.359375 9.015625 -6.203125 C 10.234375 -5.046875 11.6875 -4.46875 13.375 -4.46875 C 15.28125 -4.46875 16.800781 -5.050781 17.9375 -6.21875 C 19.082031 -7.394531 19.65625 -8.875 19.65625 -10.65625 C 19.65625 -12.59375 19.078125 -14.109375 17.921875 -15.203125 C 16.765625 -16.296875 15.25 -16.84375 13.375 -16.84375 C 11.5625 -16.84375 10.078125 -16.269531 8.921875 -15.125 C 7.773438 -13.988281 7.203125 -12.472656 7.203125 -10.578125 Z M 7.203125 -10.578125 "/></g></g><g style="fill:#545454;fill-opacity:1;"><g transform="translate(385.444728, 254.137522)"><path style="stroke:none" d="M 13.375 -21.59375 C 16.539062 -21.59375 18.976562 -20.535156 20.6875 -18.421875 C 22.394531 -16.316406 23.25 -13.566406 23.25 -10.171875 L 23.25 -8.6875 L 7.203125 -8.6875 C 7.367188 -7.164062 7.972656 -5.953125 9.015625 -5.046875 C 10.054688 -4.140625 11.335938 -3.6875 12.859375 -3.6875 C 15.078125 -3.6875 16.960938 -4.632812 18.515625 -6.53125 L 22.28125 -3.6875 C 20 -0.875 17.03125 0.53125 13.375 0.53125 C 10.164062 0.53125 7.457031 -0.488281 5.25 -2.53125 C 3.039062 -4.582031 1.9375 -7.25 1.9375 -10.53125 C 1.9375 -13.800781 3.039062 -16.460938 5.25 -18.515625 C 7.457031 -20.566406 10.164062 -21.59375 13.375 -21.59375 Z M 17.984375 -12.640625 C 17.953125 -14.304688 17.441406 -15.554688 16.453125 -16.390625 C 15.460938 -17.222656 14.175781 -17.640625 12.59375 -17.640625 C 11.007812 -17.640625 9.765625 -17.175781 8.859375 -16.25 C 7.953125 -15.332031 7.398438 -14.128906 7.203125 -12.640625 Z M 17.984375 -12.640625 "/></g></g><g style="fill:#545454;fill-opacity:1;"><g transform="translate(410.629007, 254.137522)"><path style="stroke:none" d="M 14.515625 -21.59375 C 16.921875 -21.59375 18.800781 -20.875 20.15625 -19.4375 C 21.519531 -18 22.203125 -16.007812 22.203125 -13.46875 L 22.203125 0 L 16.9375 0 L 16.9375 -10.921875 C 16.9375 -14.867188 15.648438 -16.84375 13.078125 -16.84375 C 11.585938 -16.84375 10.410156 -16.359375 9.546875 -15.390625 C 8.679688 -14.429688 8.25 -13.160156 8.25 -11.578125 L 8.25 0 L 2.984375 0 L 2.984375 -21.0625 L 7.984375 -21.0625 L 7.984375 -17.6875 L 8.078125 -17.6875 C 9.273438 -20.289062 11.421875 -21.59375 14.515625 -21.59375 Z M 14.515625 -21.59375 "/></g></g><g style="fill:#545454;fill-opacity:1;"><g transform="translate(435.813262, 254.137522)"><path style="stroke:none" d="M 10.140625 -27.15625 L 10.140625 -21.0625 L 15.921875 -21.0625 L 15.921875 -16.578125 L 10.140625 -16.578125 L 10.140625 -7.234375 C 10.140625 -5.046875 11.117188 -3.953125 13.078125 -3.953125 C 14.390625 -3.953125 15.335938 -4.171875 15.921875 -4.609375 L 15.921875 -0.171875 C 14.929688 0.296875 13.546875 0.53125 11.765625 0.53125 C 9.328125 0.53125 7.566406 0 6.484375 -1.0625 C 5.410156 -2.132812 4.875 -4.019531 4.875 -6.71875 L 4.875 -16.578125 L 0.53125 -16.578125 L 0.53125 -21.0625 L 4.875 -21.0625 L 4.875 -27.15625 Z M 10.140625 -27.15625 "/></g><g transform="translate(452.880636, 254.137522)"><path style="stroke:none" d=""/></g></g><g style="fill:#545454;fill-opacity:1;"><g transform="translate(465.867665, 254.137522)"><path style="stroke:none" d="M 14.125 -31.0625 C 17.726562 -31.0625 20.5 -30.28125 22.4375 -28.71875 C 24.382812 -27.15625 25.359375 -24.96875 25.359375 -22.15625 C 25.359375 -18.90625 24.378906 -16.539062 22.421875 -15.0625 C 20.460938 -13.59375 17.40625 -12.859375 13.25 -12.859375 L 9 -12.859375 L 9 0 L 3.46875 0 L 3.46875 -31.0625 Z M 12.59375 -17.59375 C 15.164062 -17.59375 16.96875 -17.957031 18 -18.6875 C 19.039062 -19.414062 19.5625 -20.515625 19.5625 -21.984375 C 19.5625 -24.878906 17.414062 -26.328125 13.125 -26.328125 L 9 -26.328125 L 9 -17.59375 Z M 12.59375 -17.59375 "/></g></g><g style="fill:#545454;fill-opacity:1;"><g transform="translate(492.67531, 254.137522)"><path style="stroke:none" d="M 14.5625 -21.59375 C 15 -21.59375 15.628906 -21.488281 16.453125 -21.28125 L 16.453125 -16.1875 C 15.546875 -16.445312 14.695312 -16.578125 13.90625 -16.578125 C 12.175781 -16.578125 10.800781 -16.066406 9.78125 -15.046875 C 8.757812 -14.023438 8.25 -12.664062 8.25 -10.96875 L 8.25 0 L 2.984375 0 L 2.984375 -21.0625 L 8.25 -21.0625 L 8.25 -17.71875 L 8.34375 -17.71875 C 8.925781 -18.945312 9.753906 -19.898438 10.828125 -20.578125 C 11.910156 -21.253906 13.15625 -21.59375 14.5625 -21.59375 Z M 14.5625 -21.59375 "/></g></g><g style="fill:#545454;fill-opacity:1;"><g transform="translate(508.952927, 254.137522)"><path style="stroke:none" d="M 13.375 -21.59375 C 16.59375 -21.59375 19.304688 -20.566406 21.515625 -18.515625 C 23.722656 -16.460938 24.828125 -13.800781 24.828125 -10.53125 C 24.828125 -7.25 23.722656 -4.582031 21.515625 -2.53125 C 19.304688 -0.488281 16.59375 0.53125 13.375 0.53125 C 10.164062 0.53125 7.457031 -0.488281 5.25 -2.53125 C 3.039062 -4.582031 1.9375 -7.25 1.9375 -10.53125 C 1.9375 -13.800781 3.039062 -16.460938 5.25 -18.515625 C 7.457031 -20.566406 10.164062 -21.59375 13.375 -21.59375 Z M 7.203125 -10.53125 C 7.203125 -8.65625 7.789062 -7.132812 8.96875 -5.96875 C 10.15625 -4.800781 11.625 -4.21875 13.375 -4.21875 C 15.164062 -4.21875 16.644531 -4.804688 17.8125 -5.984375 C 18.976562 -7.171875 19.5625 -8.6875 19.5625 -10.53125 C 19.5625 -12.40625 18.96875 -13.925781 17.78125 -15.09375 C 16.601562 -16.257812 15.125 -16.84375 13.34375 -16.84375 C 11.613281 -16.84375 10.15625 -16.242188 8.96875 -15.046875 C 7.789062 -13.847656 7.203125 -12.34375 7.203125 -10.53125 Z M 7.203125 -10.53125 "/></g></g><g style="fill:#545454;fill-opacity:1;"><g transform="translate(535.716719, 254.137522)"><path style="stroke:none" d="M 24.65625 -33.171875 L 24.65625 0 L 19.65625 0 L 19.65625 -3.15625 L 19.5625 -3.15625 C 18.101562 -0.695312 15.675781 0.53125 12.28125 0.53125 C 9.15625 0.53125 6.648438 -0.503906 4.765625 -2.578125 C 2.878906 -4.660156 1.9375 -7.3125 1.9375 -10.53125 C 1.9375 -13.632812 2.882812 -16.253906 4.78125 -18.390625 C 6.6875 -20.523438 9.128906 -21.59375 12.109375 -21.59375 C 15.117188 -21.59375 17.503906 -20.523438 19.265625 -18.390625 L 19.390625 -18.390625 L 19.390625 -33.171875 Z M 7.203125 -10.53125 C 7.203125 -8.65625 7.789062 -7.132812 8.96875 -5.96875 C 10.15625 -4.800781 11.625 -4.21875 13.375 -4.21875 C 15.21875 -4.21875 16.707031 -4.820312 17.84375 -6.03125 C 18.988281 -7.25 19.5625 -8.75 19.5625 -10.53125 C 19.5625 -12.34375 18.96875 -13.847656 17.78125 -15.046875 C 16.601562 -16.242188 15.132812 -16.84375 13.375 -16.84375 C 11.65625 -16.84375 10.195312 -16.25 9 -15.0625 C 7.800781 -13.882812 7.203125 -12.375 7.203125 -10.53125 Z M 7.203125 -10.53125 "/></g></g><g style="fill:#545454;fill-opacity:1;"><g transform="translate(563.357952, 254.137522)"><path style="stroke:none" d="M 8.25 -21.0625 L 8.25 -10.171875 C 8.25 -8.066406 8.566406 -6.546875 9.203125 -5.609375 C 9.847656 -4.679688 10.816406 -4.21875 12.109375 -4.21875 C 13.691406 -4.21875 14.890625 -4.695312 15.703125 -5.65625 C 16.523438 -6.625 16.9375 -7.925781 16.9375 -9.5625 L 16.9375 -21.0625 L 22.203125 -21.0625 L 22.203125 0 L 17.203125 0 L 17.203125 -3.375 L 17.109375 -3.375 C 15.878906 -0.769531 13.726562 0.53125 10.65625 0.53125 C 8.289062 0.53125 6.421875 -0.175781 5.046875 -1.59375 C 3.671875 -3.019531 2.984375 -5.019531 2.984375 -7.59375 L 2.984375 -21.0625 Z M 8.25 -21.0625 "/></g></g><g style="fill:#545454;fill-opacity:1;"><g transform="translate(588.54223, 254.137522)"><path style="stroke:none" d="M 13.375 -21.59375 C 16.570312 -21.59375 19.117188 -20.523438 21.015625 -18.390625 L 17.375 -14.734375 C 16.0625 -16.140625 14.726562 -16.84375 13.375 -16.84375 C 11.507812 -16.84375 10.015625 -16.222656 8.890625 -14.984375 C 7.765625 -13.742188 7.203125 -12.257812 7.203125 -10.53125 C 7.203125 -8.65625 7.789062 -7.132812 8.96875 -5.96875 C 10.15625 -4.800781 11.625 -4.21875 13.375 -4.21875 C 15.070312 -4.21875 16.4375 -4.875 17.46875 -6.1875 L 20.96875 -2.40625 C 20.15625 -1.59375 19.035156 -0.898438 17.609375 -0.328125 C 16.191406 0.242188 14.78125 0.53125 13.375 0.53125 C 10.164062 0.53125 7.457031 -0.488281 5.25 -2.53125 C 3.039062 -4.582031 1.9375 -7.25 1.9375 -10.53125 C 1.9375 -13.71875 3.015625 -16.359375 5.171875 -18.453125 C 7.335938 -20.546875 10.070312 -21.59375 13.375 -21.59375 Z M 13.375 -21.59375 "/></g></g><g style="fill:#545454;fill-opacity:1;"><g transform="translate(609.689994, 254.137522)"><path style="stroke:none" d="M 10.140625 -27.15625 L 10.140625 -21.0625 L 15.921875 -21.0625 L 15.921875 -16.578125 L 10.140625 -16.578125 L 10.140625 -7.234375 C 10.140625 -5.046875 11.117188 -3.953125 13.078125 -3.953125 C 14.390625 -3.953125 15.335938 -4.171875 15.921875 -4.609375 L 15.921875 -0.171875 C 14.929688 0.296875 13.546875 0.53125 11.765625 0.53125 C 9.328125 0.53125 7.566406 0 6.484375 -1.0625 C 5.410156 -2.132812 4.875 -4.019531 4.875 -6.71875 L 4.875 -16.578125 L 0.53125 -16.578125 L 0.53125 -21.0625 L 4.875 -21.0625 L 4.875 -27.15625 Z M 10.140625 -27.15625 "/></g></g><g style="fill:#545454;fill-opacity:1;"><g transform="translate(626.757391, 254.137522)"><path style="stroke:none" d="M 10.171875 -21.59375 C 13.628906 -21.59375 16.144531 -20.523438 17.71875 -18.390625 L 14.21875 -15.21875 C 13.164062 -16.65625 11.789062 -17.375 10.09375 -17.375 C 9.238281 -17.375 8.507812 -17.164062 7.90625 -16.75 C 7.3125 -16.34375 7.015625 -15.804688 7.015625 -15.140625 C 7.015625 -14.109375 8.054688 -13.375 10.140625 -12.9375 L 12.015625 -12.5 C 14.328125 -12.007812 15.96875 -11.242188 16.9375 -10.203125 C 17.90625 -9.160156 18.390625 -7.835938 18.390625 -6.234375 C 18.390625 -4.179688 17.566406 -2.539062 15.921875 -1.3125 C 14.285156 -0.0820312 12.0625 0.53125 9.25 0.53125 C 5.71875 0.53125 3 -0.550781 1.09375 -2.71875 L 4.609375 -6.015625 C 5.515625 -5.015625 6.347656 -4.332031 7.109375 -3.96875 C 7.867188 -3.601562 8.703125 -3.421875 9.609375 -3.421875 C 10.578125 -3.421875 11.40625 -3.640625 12.09375 -4.078125 C 12.78125 -4.515625 13.125 -5.097656 13.125 -5.828125 C 13.125 -7.035156 12.039062 -7.882812 9.875 -8.375 C 7.0625 -9.019531 5.300781 -9.523438 4.59375 -9.890625 C 3.894531 -10.253906 3.332031 -10.691406 2.90625 -11.203125 C 2.488281 -11.722656 2.191406 -12.28125 2.015625 -12.875 C 1.835938 -13.476562 1.75 -14.113281 1.75 -14.78125 C 1.75 -16.863281 2.546875 -18.519531 4.140625 -19.75 C 5.734375 -20.976562 7.742188 -21.59375 10.171875 -21.59375 Z M 10.171875 -21.59375 "/></g></g><g style="fill:#545454;fill-opacity:1;"><g transform="translate(646.24714, 254.137522)"><path style="stroke:none" d=""/></g></g><g clip-rule="nonzero" clip-path="url(#2962e1c595)"><g clip-rule="nonzero" clip-path="url(#58a90d718d)"><path style=" stroke:none;fill-rule:nonzero;fill:#f97019;fill-opacity:1;" d="M 166.230469 112.539062 L 190.914062 112.539062 L 190.914062 136.292969 L 166.230469 136.292969 Z M 166.230469 112.539062 "/></g></g><g clip-rule="nonzero" clip-path="url(#89742152b5)"><g clip-rule="nonzero" clip-path="url(#29515d4e53)"><path style=" stroke:none;fill-rule:nonzero;fill:#f97019;fill-opacity:1;" d="M 337.527344 112.539062 L 362.210938 112.539062 L 362.210938 136.292969 L 337.527344 136.292969 Z M 337.527344 112.539062 "/></g></g></g></svg>