<svg xmlns="http://www.w3.org/2000/svg" xmlns:xlink="http://www.w3.org/1999/xlink" width="375" zoomAndPan="magnify" viewBox="0 0 281.25 48.75" height="65" preserveAspectRatio="xMidYMid meet" version="1.2"><defs><clipPath id="5780a61e8d"><path d="M 0.34375 0 L 280.160156 0 L 280.160156 48.5 L 0.34375 48.5 Z M 0.34375 0 "/></clipPath></defs><g id="66a1e30ea9"><g clip-rule="nonzero" clip-path="url(#5780a61e8d)"><path style=" stroke:none;fill-rule:nonzero;fill:#ffffff;fill-opacity:1;" d="M 0.34375 0 L 280.160156 0 L 280.160156 48.5 L 0.34375 48.5 Z M 0.34375 0 "/><path style=" stroke:none;fill-rule:nonzero;fill:#ffffff;fill-opacity:1;" d="M 0.34375 0 L 280.160156 0 L 280.160156 48.5 L 0.34375 48.5 Z M 0.34375 0 "/></g><g style="fill:#f97019;fill-opacity:1;"><g transform="translate(34.283157, 41.048901)"><path style="stroke:none" d="M 4.390625 -4.390625 C 5.023438 -4.390625 5.578125 -4.175781 6.046875 -3.75 C 6.523438 -3.332031 6.765625 -2.796875 6.765625 -2.140625 C 6.765625 -1.484375 6.523438 -0.929688 6.046875 -0.484375 C 5.578125 -0.046875 5.023438 0.171875 4.390625 0.171875 C 3.765625 0.171875 3.210938 -0.0390625 2.734375 -0.46875 C 2.253906 -0.90625 2.015625 -1.441406 2.015625 -2.078125 C 2.015625 -2.734375 2.253906 -3.28125 2.734375 -3.71875 C 3.210938 -4.164062 3.765625 -4.390625 4.390625 -4.390625 Z M 4.390625 -4.390625 "/></g></g><g style="fill:#8217a8;fill-opacity:1;"><g transform="translate(1.992198, 40.4116)"><path style="stroke:none" d="M 33.578125 -4.453125 L 33.578125 -21.03125 C 33.578125 -21.8125 33.300781 -22.476562 32.75 -23.03125 C 32.195312 -23.59375 31.53125 -23.875 30.75 -23.875 L 6.0625 -23.875 L 6.0625 -28.3125 L 30.75 -28.3125 C 32.175781 -28.3125 33.4375 -28 34.53125 -27.375 C 35.625 -26.757812 36.476562 -25.90625 37.09375 -24.8125 C 37.71875 -23.71875 38.03125 -22.457031 38.03125 -21.03125 L 38.03125 -4.453125 Z M 8.90625 0 C 7.46875 0 6.203125 -0.304688 5.109375 -0.921875 C 4.023438 -1.546875 3.171875 -2.40625 2.546875 -3.5 C 1.929688 -4.59375 1.625 -5.851562 1.625 -7.28125 L 1.625 -23.875 L 6.0625 -23.875 L 6.0625 -7.28125 C 6.0625 -6.5 6.335938 -5.832031 6.890625 -5.28125 C 7.441406 -4.726562 8.113281 -4.453125 8.90625 -4.453125 L 33.578125 -4.453125 L 33.578125 0 Z M 8.90625 0 "/></g></g><g style="fill:#1cd1dd;fill-opacity:1;"><g transform="translate(15.566373, 35.406939)"><path style="stroke:none" d="M 3.171875 -17.84375 C 4.035156 -17.84375 4.945312 -17.785156 5.90625 -17.671875 C 6.875 -17.554688 7.8125 -17.328125 8.71875 -16.984375 C 9.625 -16.640625 10.445312 -16.140625 11.1875 -15.484375 C 11.925781 -14.828125 12.515625 -13.96875 12.953125 -12.90625 C 13.390625 -11.84375 13.609375 -10.515625 13.609375 -8.921875 C 13.609375 -7.390625 13.390625 -6.097656 12.953125 -5.046875 C 12.523438 -4.003906 11.945312 -3.148438 11.21875 -2.484375 C 10.488281 -1.828125 9.664062 -1.316406 8.75 -0.953125 C 7.84375 -0.585938 6.90625 -0.335938 5.9375 -0.203125 C 4.976562 -0.0664062 4.054688 0 3.171875 0 L 0.25 0 C 0.0820312 0 0 -0.0664062 0 -0.203125 L 0 -7.203125 L 3.40625 -7.203125 L 3.40625 -3.28125 C 3.84375 -3.257812 4.347656 -3.269531 4.921875 -3.3125 C 5.503906 -3.351562 6.097656 -3.460938 6.703125 -3.640625 C 7.316406 -3.828125 7.890625 -4.117188 8.421875 -4.515625 C 8.953125 -4.921875 9.375 -5.484375 9.6875 -6.203125 C 10.007812 -6.921875 10.171875 -7.828125 10.171875 -8.921875 C 10.171875 -10.335938 9.875 -11.472656 9.28125 -12.328125 C 8.695312 -13.179688 7.894531 -13.789062 6.875 -14.15625 C 5.863281 -14.519531 4.707031 -14.664062 3.40625 -14.59375 L 3.40625 -10.640625 L 0 -10.640625 L 0 -17.65625 C 0 -17.78125 0.0820312 -17.84375 0.25 -17.84375 Z M 3.171875 -17.84375 "/></g></g><g style="fill:#1cd1dd;fill-opacity:1;"><g transform="translate(29.872833, 35.406939)"><path style="stroke:none" d=""/></g></g><g style="fill:#000000;fill-opacity:1;"><g transform="translate(47.777335, 43.924225)"><path style="stroke:none" d="M 6.234375 -35.15625 C 7.941406 -35.15625 9.742188 -35.035156 11.640625 -34.796875 C 13.546875 -34.566406 15.390625 -34.113281 17.171875 -33.4375 C 18.960938 -32.769531 20.582031 -31.789062 22.03125 -30.5 C 23.488281 -29.207031 24.648438 -27.515625 25.515625 -25.421875 C 26.378906 -23.328125 26.8125 -20.710938 26.8125 -17.578125 C 26.8125 -14.554688 26.382812 -12.015625 25.53125 -9.953125 C 24.6875 -7.890625 23.546875 -6.203125 22.109375 -4.890625 C 20.671875 -3.585938 19.050781 -2.578125 17.25 -1.859375 C 15.445312 -1.148438 13.597656 -0.660156 11.703125 -0.390625 C 9.816406 -0.128906 7.992188 0 6.234375 0 L 0.484375 0 C 0.160156 0 0 -0.128906 0 -0.390625 L 0 -14.203125 L 6.71875 -14.203125 L 6.71875 -6.46875 C 7.570312 -6.4375 8.566406 -6.457031 9.703125 -6.53125 C 10.847656 -6.601562 12.019531 -6.820312 13.21875 -7.1875 C 14.425781 -7.550781 15.550781 -8.128906 16.59375 -8.921875 C 17.632812 -9.710938 18.46875 -10.8125 19.09375 -12.21875 C 19.726562 -13.625 20.046875 -15.410156 20.046875 -17.578125 C 20.046875 -20.359375 19.46875 -22.59375 18.3125 -24.28125 C 17.15625 -25.96875 15.570312 -27.171875 13.5625 -27.890625 C 11.550781 -28.609375 9.269531 -28.894531 6.71875 -28.75 L 6.71875 -20.96875 L 0 -20.96875 L 0 -34.765625 C 0 -35.023438 0.160156 -35.15625 0.484375 -35.15625 Z M 6.234375 -35.15625 "/></g></g><g style="fill:#000000;fill-opacity:1;"><g transform="translate(75.944529, 43.924225)"><path style="stroke:none" d="M 20.21875 -17.5 C 20.21875 -16.582031 19.898438 -15.800781 19.265625 -15.15625 C 18.640625 -14.519531 17.859375 -14.203125 16.921875 -14.203125 C 16.015625 -14.203125 15.238281 -14.519531 14.59375 -15.15625 C 13.945312 -15.800781 13.625 -16.582031 13.625 -17.5 C 13.625 -18.4375 13.945312 -19.222656 14.59375 -19.859375 C 15.238281 -20.503906 16.015625 -20.828125 16.921875 -20.828125 C 17.859375 -20.828125 18.640625 -20.503906 19.265625 -19.859375 C 19.898438 -19.222656 20.21875 -18.4375 20.21875 -17.5 Z M 33.84375 -17.625 C 33.84375 -15.425781 33.488281 -13.28125 32.78125 -11.1875 C 32.082031 -9.09375 31.03125 -7.203125 29.625 -5.515625 C 28.21875 -3.828125 26.457031 -2.484375 24.34375 -1.484375 C 22.238281 -0.492188 19.78125 0 16.96875 0 C 14.125 0 11.640625 -0.492188 9.515625 -1.484375 C 7.390625 -2.484375 5.625 -3.828125 4.21875 -5.515625 C 2.8125 -7.203125 1.753906 -9.09375 1.046875 -11.1875 C 0.347656 -13.28125 0 -15.425781 0 -17.625 C 0 -19.820312 0.347656 -21.957031 1.046875 -24.03125 C 1.753906 -26.113281 2.8125 -27.988281 4.21875 -29.65625 C 5.625 -31.332031 7.390625 -32.664062 9.515625 -33.65625 C 11.640625 -34.65625 14.125 -35.15625 16.96875 -35.15625 C 19.78125 -35.15625 22.238281 -34.65625 24.34375 -33.65625 C 26.457031 -32.664062 28.21875 -31.332031 29.625 -29.65625 C 31.03125 -27.988281 32.082031 -26.113281 32.78125 -24.03125 C 33.488281 -21.957031 33.84375 -19.820312 33.84375 -17.625 Z M 27.25 -17.5 C 27.25 -18.925781 27.03125 -20.320312 26.59375 -21.6875 C 26.15625 -23.050781 25.507812 -24.28125 24.65625 -25.375 C 23.8125 -26.476562 22.742188 -27.351562 21.453125 -28 C 20.160156 -28.644531 18.664062 -28.96875 16.96875 -28.96875 C 15.238281 -28.96875 13.726562 -28.644531 12.4375 -28 C 11.144531 -27.351562 10.066406 -26.476562 9.203125 -25.375 C 8.335938 -24.28125 7.691406 -23.050781 7.265625 -21.6875 C 6.847656 -20.320312 6.640625 -18.925781 6.640625 -17.5 C 6.640625 -16.09375 6.847656 -14.710938 7.265625 -13.359375 C 7.691406 -12.015625 8.335938 -10.800781 9.203125 -9.71875 C 10.066406 -8.632812 11.144531 -7.769531 12.4375 -7.125 C 13.726562 -6.476562 15.238281 -6.15625 16.96875 -6.15625 C 18.664062 -6.15625 20.160156 -6.476562 21.453125 -7.125 C 22.742188 -7.769531 23.8125 -8.632812 24.65625 -9.71875 C 25.507812 -10.800781 26.15625 -12.015625 26.59375 -13.359375 C 27.03125 -14.710938 27.25 -16.09375 27.25 -17.5 Z M 27.25 -17.5 "/></g></g><g style="fill:#000000;fill-opacity:1;"><g transform="translate(111.450139, 43.924225)"><path style="stroke:none" d="M 20.09375 -6.46875 L 26.8125 -6.46875 L 26.8125 -0.390625 C 26.8125 -0.128906 26.648438 0 26.328125 0 L 20.609375 0 C 18.859375 0 17.03125 -0.128906 15.125 -0.390625 C 13.21875 -0.660156 11.367188 -1.148438 9.578125 -1.859375 C 7.796875 -2.578125 6.175781 -3.585938 4.71875 -4.890625 C 3.269531 -6.203125 2.117188 -7.890625 1.265625 -9.953125 C 0.421875 -12.015625 0 -14.554688 0 -17.578125 C 0 -20.679688 0.429688 -23.285156 1.296875 -25.390625 C 2.160156 -27.503906 3.316406 -29.207031 4.765625 -30.5 C 6.210938 -31.789062 7.835938 -32.769531 9.640625 -33.4375 C 11.441406 -34.113281 13.285156 -34.566406 15.171875 -34.796875 C 17.066406 -35.035156 18.878906 -35.15625 20.609375 -35.15625 L 26.328125 -35.15625 C 26.648438 -35.15625 26.8125 -35.023438 26.8125 -34.765625 L 26.8125 -20.96875 L 20.09375 -20.96875 L 20.09375 -28.75 C 17.539062 -28.894531 15.257812 -28.609375 13.25 -27.890625 C 11.238281 -27.171875 9.65625 -25.96875 8.5 -24.28125 C 7.34375 -22.59375 6.765625 -20.359375 6.765625 -17.578125 C 6.765625 -15.410156 7.078125 -13.625 7.703125 -12.21875 C 8.335938 -10.8125 9.175781 -9.710938 10.21875 -8.921875 C 11.257812 -8.128906 12.378906 -7.550781 13.578125 -7.1875 C 14.785156 -6.820312 15.957031 -6.601562 17.09375 -6.53125 C 18.238281 -6.457031 19.238281 -6.4375 20.09375 -6.46875 Z M 20.09375 -6.46875 "/></g></g><g style="fill:#000000;fill-opacity:1;"><g transform="translate(139.617333, 43.924225)"><path style="stroke:none" d="M 20.21875 -17.5 C 20.21875 -16.582031 19.898438 -15.800781 19.265625 -15.15625 C 18.640625 -14.519531 17.859375 -14.203125 16.921875 -14.203125 C 16.015625 -14.203125 15.238281 -14.519531 14.59375 -15.15625 C 13.945312 -15.800781 13.625 -16.582031 13.625 -17.5 C 13.625 -18.4375 13.945312 -19.222656 14.59375 -19.859375 C 15.238281 -20.503906 16.015625 -20.828125 16.921875 -20.828125 C 17.859375 -20.828125 18.640625 -20.503906 19.265625 -19.859375 C 19.898438 -19.222656 20.21875 -18.4375 20.21875 -17.5 Z M 33.84375 -17.625 C 33.84375 -15.425781 33.488281 -13.28125 32.78125 -11.1875 C 32.082031 -9.09375 31.03125 -7.203125 29.625 -5.515625 C 28.21875 -3.828125 26.457031 -2.484375 24.34375 -1.484375 C 22.238281 -0.492188 19.78125 0 16.96875 0 C 14.125 0 11.640625 -0.492188 9.515625 -1.484375 C 7.390625 -2.484375 5.625 -3.828125 4.21875 -5.515625 C 2.8125 -7.203125 1.753906 -9.09375 1.046875 -11.1875 C 0.347656 -13.28125 0 -15.425781 0 -17.625 C 0 -19.820312 0.347656 -21.957031 1.046875 -24.03125 C 1.753906 -26.113281 2.8125 -27.988281 4.21875 -29.65625 C 5.625 -31.332031 7.390625 -32.664062 9.515625 -33.65625 C 11.640625 -34.65625 14.125 -35.15625 16.96875 -35.15625 C 19.78125 -35.15625 22.238281 -34.65625 24.34375 -33.65625 C 26.457031 -32.664062 28.21875 -31.332031 29.625 -29.65625 C 31.03125 -27.988281 32.082031 -26.113281 32.78125 -24.03125 C 33.488281 -21.957031 33.84375 -19.820312 33.84375 -17.625 Z M 27.25 -17.5 C 27.25 -18.925781 27.03125 -20.320312 26.59375 -21.6875 C 26.15625 -23.050781 25.507812 -24.28125 24.65625 -25.375 C 23.8125 -26.476562 22.742188 -27.351562 21.453125 -28 C 20.160156 -28.644531 18.664062 -28.96875 16.96875 -28.96875 C 15.238281 -28.96875 13.726562 -28.644531 12.4375 -28 C 11.144531 -27.351562 10.066406 -26.476562 9.203125 -25.375 C 8.335938 -24.28125 7.691406 -23.050781 7.265625 -21.6875 C 6.847656 -20.320312 6.640625 -18.925781 6.640625 -17.5 C 6.640625 -16.09375 6.847656 -14.710938 7.265625 -13.359375 C 7.691406 -12.015625 8.335938 -10.800781 9.203125 -9.71875 C 10.066406 -8.632812 11.144531 -7.769531 12.4375 -7.125 C 13.726562 -6.476562 15.238281 -6.15625 16.96875 -6.15625 C 18.664062 -6.15625 20.160156 -6.476562 21.453125 -7.125 C 22.742188 -7.769531 23.8125 -8.632812 24.65625 -9.71875 C 25.507812 -10.800781 26.15625 -12.015625 26.59375 -13.359375 C 27.03125 -14.710938 27.25 -16.09375 27.25 -17.5 Z M 27.25 -17.5 "/></g></g><g style="fill:#000000;fill-opacity:1;"><g transform="translate(175.122942, 43.924225)"><path style="stroke:none" d="M 6.421875 -17.84375 C 6.421875 -15.90625 6.84375 -14.078125 7.6875 -12.359375 C 8.539062 -10.648438 9.75 -9.257812 11.3125 -8.1875 C 12.882812 -7.125 14.722656 -6.59375 16.828125 -6.59375 C 17.597656 -6.59375 18.421875 -6.703125 19.296875 -6.921875 C 20.171875 -7.140625 20.988281 -7.441406 21.75 -7.828125 L 7.25 -22.328125 C 6.988281 -21.617188 6.785156 -20.882812 6.640625 -20.125 C 6.492188 -19.363281 6.421875 -18.601562 6.421875 -17.84375 Z M 27.34375 -17.84375 C 27.34375 -19.8125 26.9375 -21.632812 26.125 -23.3125 C 25.320312 -25 24.144531 -26.363281 22.59375 -27.40625 C 21.039062 -28.445312 19.117188 -28.96875 16.828125 -28.96875 C 15.742188 -28.96875 14.738281 -28.832031 13.8125 -28.5625 C 12.894531 -28.300781 12.054688 -27.921875 11.296875 -27.421875 L 26.203125 -12.53125 C 26.546875 -13.289062 26.820312 -14.15625 27.03125 -15.125 C 27.238281 -16.09375 27.34375 -17 27.34375 -17.84375 Z M 34.015625 -4.484375 C 34.285156 -4.304688 34.285156 -4.113281 34.015625 -3.90625 L 30.234375 -0.09375 C 30.003906 0.0507812 29.769531 0.0507812 29.53125 -0.09375 L 26.375 -3.296875 C 25 -2.390625 23.492188 -1.675781 21.859375 -1.15625 C 20.234375 -0.644531 18.554688 -0.390625 16.828125 -0.390625 C 14.304688 -0.390625 12.015625 -0.859375 9.953125 -1.796875 C 7.890625 -2.734375 6.117188 -4.015625 4.640625 -5.640625 C 3.160156 -7.273438 2.015625 -9.140625 1.203125 -11.234375 C 0.398438 -13.328125 0 -15.53125 0 -17.84375 C 0 -20.125 0.382812 -22.304688 1.15625 -24.390625 C 1.9375 -26.472656 3.054688 -28.316406 4.515625 -29.921875 C 5.984375 -31.535156 7.75 -32.8125 9.8125 -33.75 C 11.882812 -34.6875 14.222656 -35.15625 16.828125 -35.15625 C 19.347656 -35.15625 21.632812 -34.6875 23.6875 -33.75 C 25.738281 -32.8125 27.519531 -31.535156 29.03125 -29.921875 C 30.539062 -28.316406 31.695312 -26.472656 32.5 -24.390625 C 33.3125 -22.304688 33.71875 -20.125 33.71875 -17.84375 C 33.71875 -16.144531 33.457031 -14.378906 32.9375 -12.546875 C 32.425781 -10.710938 31.71875 -9.109375 30.8125 -7.734375 Z M 34.015625 -4.484375 "/></g></g><g style="fill:#000000;fill-opacity:1;"><g transform="translate(211.024034, 43.924225)"><path style="stroke:none" d="M 6.328125 -3.078125 C 6.328125 -2.222656 6.019531 -1.492188 5.40625 -0.890625 C 4.789062 -0.296875 4.03125 0 3.125 0 C 2.269531 0 1.535156 -0.296875 0.921875 -0.890625 C 0.304688 -1.492188 0 -2.222656 0 -3.078125 C 0 -3.921875 0.304688 -4.648438 0.921875 -5.265625 C 1.535156 -5.890625 2.269531 -6.203125 3.125 -6.203125 C 4.03125 -6.203125 4.789062 -5.890625 5.40625 -5.265625 C 6.019531 -4.648438 6.328125 -3.921875 6.328125 -3.078125 Z M 6.328125 -3.078125 "/></g></g><g style="fill:#000000;fill-opacity:1;"><g transform="translate(217.65936, 43.924225)"><path style="stroke:none" d="M 27.609375 -0.53125 C 27.660156 -0.414062 27.640625 -0.296875 27.546875 -0.171875 C 27.460938 -0.0546875 27.347656 0 27.203125 0 L 21.140625 0 C 20.929688 0 20.800781 -0.0859375 20.75 -0.265625 L 13.796875 -19.859375 L 6.9375 -0.265625 C 6.914062 -0.0859375 6.769531 0 6.5 0 L 0.484375 0 C 0.273438 0 0.132812 -0.0546875 0.0625 -0.171875 C -0.0078125 -0.296875 -0.015625 -0.414062 0.046875 -0.53125 L 13.359375 -34.90625 C 13.421875 -35.070312 13.566406 -35.15625 13.796875 -35.15625 C 14.035156 -35.15625 14.179688 -35.070312 14.234375 -34.90625 Z M 27.609375 -0.53125 "/></g></g><g style="fill:#000000;fill-opacity:1;"><g transform="translate(246.661479, 43.924225)"><path style="stroke:none" d="M 14.328125 -6.015625 C 14.648438 -6.015625 14.8125 -5.882812 14.8125 -5.625 L 14.8125 -0.390625 C 14.8125 -0.128906 14.648438 0 14.328125 0 L 0.484375 0 C 0.160156 0 0 -0.128906 0 -0.390625 L 0 -5.625 C 0 -5.882812 0.160156 -6.015625 0.484375 -6.015625 L 4.09375 -6.015625 L 4.09375 -35.15625 L 10.8125 -35.15625 L 10.8125 -6.015625 Z M 14.328125 -6.015625 "/></g></g></g></svg>