<svg xmlns="http://www.w3.org/2000/svg" xmlns:xlink="http://www.w3.org/1999/xlink" width="64" zoomAndPan="magnify" viewBox="0 0 48 48" height="64" preserveAspectRatio="xMidYMid meet" version="1.2"><defs><clipPath id="22a77e4441"><path d="M 0.488281 0 L 47.507812 0 L 47.507812 47.019531 L 0.488281 47.019531 Z M 0.488281 0 "/></clipPath><clipPath id="819b235098"><path d="M 0.488281 3 L 47.507812 3 L 47.507812 41 L 0.488281 41 Z M 0.488281 3 "/></clipPath><clipPath id="a8fc75cc3f"><path d="M 42 35 L 47.507812 35 L 47.507812 40 L 42 40 Z M 42 35 "/></clipPath></defs><g id="58e55c1b8c"><g clip-rule="nonzero" clip-path="url(#22a77e4441)"><path style=" stroke:none;fill-rule:nonzero;fill:#ffffff;fill-opacity:1;" d="M 0.488281 0 L 47.511719 0 L 47.511719 47.019531 L 0.488281 47.019531 Z M 0.488281 0 "/><path style=" stroke:none;fill-rule:nonzero;fill:#ffffff;fill-opacity:1;" d="M 0.488281 0 L 47.511719 0 L 47.511719 47.019531 L 0.488281 47.019531 Z M 0.488281 0 "/></g><g clip-rule="nonzero" clip-path="url(#819b235098)"><g style="fill:#8217a8;fill-opacity:1;"><g transform="translate(-1.173171, 40.151766)"><path style="stroke:none" d="M 43.140625 -5.71875 L 43.140625 -27.03125 C 43.140625 -28.03125 42.78125 -28.882812 42.0625 -29.59375 C 41.351562 -30.300781 40.5 -30.65625 39.5 -30.65625 L 7.796875 -30.65625 L 7.796875 -36.375 L 39.5 -36.375 C 41.332031 -36.375 42.945312 -35.972656 44.34375 -35.171875 C 45.75 -34.378906 46.847656 -33.28125 47.640625 -31.875 C 48.441406 -30.476562 48.84375 -28.863281 48.84375 -27.03125 L 48.84375 -5.71875 Z M 11.4375 0 C 9.59375 0 7.96875 -0.394531 6.5625 -1.1875 C 5.164062 -1.988281 4.066406 -3.085938 3.265625 -4.484375 C 2.472656 -5.890625 2.078125 -7.515625 2.078125 -9.359375 L 2.078125 -30.65625 L 7.796875 -30.65625 L 7.796875 -9.359375 C 7.796875 -8.347656 8.148438 -7.488281 8.859375 -6.78125 C 9.566406 -6.070312 10.425781 -5.71875 11.4375 -5.71875 L 43.140625 -5.71875 L 43.140625 0 Z M 11.4375 0 "/></g></g></g><g clip-rule="nonzero" clip-path="url(#a8fc75cc3f)"><g style="fill:#f97019;fill-opacity:1;"><g transform="translate(40.454025, 39.437586)"><path style="stroke:none" d="M 4.328125 -4.328125 C 4.953125 -4.328125 5.5 -4.117188 5.96875 -3.703125 C 6.4375 -3.285156 6.671875 -2.753906 6.671875 -2.109375 C 6.671875 -1.460938 6.4375 -0.921875 5.96875 -0.484375 C 5.5 -0.046875 4.953125 0.171875 4.328125 0.171875 C 3.703125 0.171875 3.15625 -0.0390625 2.6875 -0.46875 C 2.21875 -0.894531 1.984375 -1.421875 1.984375 -2.046875 C 1.984375 -2.691406 2.21875 -3.234375 2.6875 -3.671875 C 3.15625 -4.109375 3.703125 -4.328125 4.328125 -4.328125 Z M 4.328125 -4.328125 "/></g></g></g><g style="fill:#1cd1dd;fill-opacity:1;"><g transform="translate(15.401013, 33.254643)"><path style="stroke:none" d="M 3.9375 -22.1875 C 5.007812 -22.1875 6.144531 -22.113281 7.34375 -21.96875 C 8.550781 -21.820312 9.71875 -21.535156 10.84375 -21.109375 C 11.96875 -20.679688 12.988281 -20.0625 13.90625 -19.25 C 14.820312 -18.4375 15.550781 -17.367188 16.09375 -16.046875 C 16.644531 -14.722656 16.921875 -13.070312 16.921875 -11.09375 C 16.921875 -9.1875 16.648438 -7.582031 16.109375 -6.28125 C 15.578125 -4.976562 14.859375 -3.914062 13.953125 -3.09375 C 13.046875 -2.269531 12.023438 -1.628906 10.890625 -1.171875 C 9.753906 -0.722656 8.585938 -0.414062 7.390625 -0.25 C 6.203125 -0.0820312 5.050781 0 3.9375 0 L 0.3125 0 C 0.101562 0 0 -0.0820312 0 -0.25 L 0 -8.953125 L 4.25 -8.953125 L 4.25 -4.078125 C 4.78125 -4.054688 5.40625 -4.066406 6.125 -4.109375 C 6.84375 -4.160156 7.582031 -4.300781 8.34375 -4.53125 C 9.101562 -4.757812 9.8125 -5.125 10.46875 -5.625 C 11.125 -6.125 11.648438 -6.816406 12.046875 -7.703125 C 12.441406 -8.597656 12.640625 -9.726562 12.640625 -11.09375 C 12.640625 -12.851562 12.273438 -14.265625 11.546875 -15.328125 C 10.816406 -16.390625 9.816406 -17.144531 8.546875 -17.59375 C 7.285156 -18.050781 5.851562 -18.234375 4.25 -18.140625 L 4.25 -13.234375 L 0 -13.234375 L 0 -21.9375 C 0 -22.101562 0.101562 -22.1875 0.3125 -22.1875 Z M 3.9375 -22.1875 "/></g></g><g style="fill:#1cd1dd;fill-opacity:1;"><g transform="translate(33.186904, 33.254643)"><path style="stroke:none" d=""/></g></g></g></svg>